<?xml version="1.0" encoding="UTF-8"?>
<svg version="1.1" xmlns="http://www.w3.org/2000/svg" width="500" height="500">
<path d="M0 0 C165 0 330 0 500 0 C500 165 500 330 500 500 C335 500 170 500 0 500 C0 335 0 170 0 0 Z " fill="#FEFEFE" transform="translate(0,0)"/>
<path d="M0 0 C3.9568361 0.64413611 5.14346277 2.36656789 7.6875 5.4375 C9.01003339 8.44306549 9.91598075 11.53215292 10.8125 14.6875 C11.28319549 16.32094057 11.76445696 17.95138511 12.2578125 19.578125 C12.56356201 20.65368652 12.56356201 20.65368652 12.87548828 21.75097656 C13.14345215 22.3075293 13.41141602 22.86408203 13.6875 23.4375 C14.6775 23.7675 15.6675 24.0975 16.6875 24.4375 C16.955625 23.344375 17.22375 22.25125 17.5 21.125 C19.1363189 16.04379921 19.1363189 16.04379921 21.6875 14.4375 C24.0625 13.875 24.0625 13.875 26.6875 14.4375 C36.04173722 23.07218051 39.11284393 35.53555506 39.90234375 47.765625 C40.27112552 60.4517178 36.10479782 70.91255964 27.375 80.25 C23.59845935 83.80834053 19.31475295 86.15380954 14.6875 88.4375 C13.82705078 88.98857422 13.82705078 88.98857422 12.94921875 89.55078125 C4.54385634 92.84614786 -8.46038974 91.09333578 -16.62890625 87.8984375 C-25.3446587 83.15361739 -32.89539179 75.41675436 -35.91015625 65.87890625 C-37.46572661 60.47894625 -37.85099346 55.41204932 -37.8125 49.8125 C-37.80822998 48.86044678 -37.80395996 47.90839355 -37.79956055 46.92749023 C-37.55450108 36.6133444 -35.28353703 26.87124295 -29.9375 17.9375 C-27.3125 15.4375 -27.3125 15.4375 -23.8125 14.5625 C-19.4986338 15.64096655 -18.47890802 17.08742187 -16.16015625 20.7109375 C-15.3125 22.4375 -15.3125 22.4375 -15.3125 24.4375 C-14.3225 24.4375 -13.3325 24.4375 -12.3125 24.4375 C-12.13074219 23.62925781 -11.94898437 22.82101563 -11.76171875 21.98828125 C-11.51035156 20.91964844 -11.25898437 19.85101563 -11 18.75 C-10.75636719 17.69425781 -10.51273438 16.63851562 -10.26171875 15.55078125 C-9.31544211 12.44714963 -8.05795306 10.15368632 -6.3125 7.4375 C-5.7865625 6.1071875 -5.7865625 6.1071875 -5.25 4.75 C-4.0422232 1.77081722 -3.21322316 0.60790709 0 0 Z " fill="#FBFAFF" transform="translate(116.3125,214.5625)"/>
<path d="M0 0 C3.9568361 0.64413611 5.14346277 2.36656789 7.6875 5.4375 C9.01003339 8.44306549 9.91598075 11.53215292 10.8125 14.6875 C11.28319549 16.32094057 11.76445696 17.95138511 12.2578125 19.578125 C12.56356201 20.65368652 12.56356201 20.65368652 12.87548828 21.75097656 C13.14345215 22.3075293 13.41141602 22.86408203 13.6875 23.4375 C14.6775 23.7675 15.6675 24.0975 16.6875 24.4375 C16.955625 23.344375 17.22375 22.25125 17.5 21.125 C19.1363189 16.04379921 19.1363189 16.04379921 21.6875 14.4375 C24.0625 13.875 24.0625 13.875 26.6875 14.4375 C36.04173722 23.07218051 39.11284393 35.53555506 39.90234375 47.765625 C40.27112552 60.4517178 36.10479782 70.91255964 27.375 80.25 C23.59845935 83.80834053 19.31475295 86.15380954 14.6875 88.4375 C13.82705078 88.98857422 13.82705078 88.98857422 12.94921875 89.55078125 C4.54385634 92.84614786 -8.46038974 91.09333578 -16.62890625 87.8984375 C-25.3446587 83.15361739 -32.89539179 75.41675436 -35.91015625 65.87890625 C-37.46572661 60.47894625 -37.85099346 55.41204932 -37.8125 49.8125 C-37.80822998 48.86044678 -37.80395996 47.90839355 -37.79956055 46.92749023 C-37.55450108 36.6133444 -35.28353703 26.87124295 -29.9375 17.9375 C-27.3125 15.4375 -27.3125 15.4375 -23.8125 14.5625 C-19.4986338 15.64096655 -18.47890802 17.08742187 -16.16015625 20.7109375 C-15.3125 22.4375 -15.3125 22.4375 -15.3125 24.4375 C-14.3225 24.4375 -13.3325 24.4375 -12.3125 24.4375 C-12.13074219 23.62925781 -11.94898437 22.82101563 -11.76171875 21.98828125 C-11.51035156 20.91964844 -11.25898437 19.85101563 -11 18.75 C-10.75636719 17.69425781 -10.51273438 16.63851562 -10.26171875 15.55078125 C-9.31544211 12.44714963 -8.05795306 10.15368632 -6.3125 7.4375 C-5.7865625 6.1071875 -5.7865625 6.1071875 -5.25 4.75 C-4.0422232 1.77081722 -3.21322316 0.60790709 0 0 Z M-1.3125 4.4375 C-5.01763708 8.98926546 -6.02163363 14.99067862 -7.50585938 20.55078125 C-8.05450757 22.52866661 -8.67788964 24.48549718 -9.3125 26.4375 C-12.02129335 27.79189668 -14.32183268 27.50251451 -17.3125 27.4375 C-18.6325 24.7975 -19.9525 22.1575 -21.3125 19.4375 C-22.9625 19.4375 -24.6125 19.4375 -26.3125 19.4375 C-33.48609712 33.2899634 -37.81842775 47.19460154 -34.25390625 62.8984375 C-30.8577758 72.05812543 -22.74275769 80.85976264 -14.234375 85.59375 C-5.84855021 88.94807992 5.17087834 88.90261506 13.5390625 85.52734375 C23.53531678 80.45651658 30.08732152 73.82200687 33.859375 63.109375 C34.77945698 59.02976621 34.99189693 55.34957462 34.9375 51.1875 C34.93145752 50.44314697 34.92541504 49.69879395 34.91918945 48.93188477 C34.75733256 39.86691793 33.16437563 31.81360947 29.6875 23.4375 C29.0275 23.4375 28.3675 23.4375 27.6875 23.4375 C27.1925 21.4575 27.1925 21.4575 26.6875 19.4375 C25.3675 19.4375 24.0475 19.4375 22.6875 19.4375 C19.67049803 23.03416734 19.67049803 23.03416734 18.6875 27.4375 C16.3775 27.4375 14.0675 27.4375 11.6875 27.4375 C7.61109169 20.03648 4.96696217 12.56206347 2.6875 4.4375 C1.3675 4.4375 0.0475 4.4375 -1.3125 4.4375 Z " fill="#4F6EFF" transform="translate(116.3125,214.5625)"/>
<path d="M0 0 C0.99 0.495 0.99 0.495 2 1 C5.88363066 14.325485 7.15131721 27.90029627 0.7109375 40.52734375 C-4.48656031 49.76888398 -10.53686926 55.32965636 -20 60 C-20.57363281 60.36738281 -21.14726562 60.73476563 -21.73828125 61.11328125 C-30.14364366 64.40864786 -43.14788974 62.65583578 -51.31640625 59.4609375 C-58.76161533 55.40779602 -64.60397579 49.18017288 -69 42 C-69 41.34 -69 40.68 -69 40 C-68.34 40 -67.68 40 -67 40 C-66.67 39.34 -66.34 38.68 -66 38 C-65.38125 38.96099609 -65.38125 38.96099609 -64.75 39.94140625 C-59.52186255 47.77194248 -54.03753111 54.9424005 -44.6171875 57.56640625 C-32.60713968 59.55613059 -22.11298078 57.93420367 -12.14453125 50.93359375 C-6.48523545 45.83094999 -2.1996801 38.56714709 -1 31 C-0.79548686 26.76646866 -0.85673336 22.54907721 -0.9375 18.3125 C-0.97197182 16.07949234 -1.00210313 13.84641233 -1.02734375 11.61328125 C-1.04531006 10.63141846 -1.06327637 9.64955566 -1.08178711 8.63793945 C-1.00731001 6.23577495 -0.64568394 4.29896383 0 2 C0 1.34 0 0.68 0 0 Z " fill="#BA3CFF" transform="translate(151,243)"/>
<path d="M0 0 C13 0 13 0 18 3 C20 5 20 5 20.375 8.3125 C19.94452982 12.54545677 18.96639625 14.03360375 16 17 C12.78548731 18.60725635 9.56387464 18.05748185 6 18 C6 21.3 6 24.6 6 28 C4.02 28 2.04 28 0 28 C0 18.76 0 9.52 0 0 Z " fill="#161616" transform="translate(176,247)"/>
<path d="M0 0 C3 2.0625 3 2.0625 5 5 C5.3125 8.8125 5.3125 8.8125 5 12 C0.71 12 -3.58 12 -8 12 C-7.34 13.32 -6.68 14.64 -6 16 C-2.28400809 16.20086443 -1.22791555 16.1519437 2 14 C2.99 14.66 3.98 15.32 5 16 C3.25 19.875 3.25 19.875 1 21 C-7.69379015 21.92390453 -7.69379015 21.92390453 -11.5625 19.1875 C-14.26111994 15.08090444 -14.70171656 10.79974125 -14 6 C-10.370112 0.31317546 -6.67925848 -1.11108124 0 0 Z " fill="#AF3DFF" transform="translate(389,254)"/>
<path d="M0 0 C0.76183594 -0.02835938 1.52367187 -0.05671875 2.30859375 -0.0859375 C5.53372888 0.5736222 6.64699894 1.72010688 8.5625 4.375 C8.953125 7.609375 8.953125 7.609375 8.8125 11.125 C8.77640625 12.29546875 8.7403125 13.4659375 8.703125 14.671875 C8.63351562 16.00992187 8.63351562 16.00992187 8.5625 17.375 C9.2225 17.375 9.8825 17.375 10.5625 17.375 C10.5625 18.695 10.5625 20.015 10.5625 21.375 C8.1875 21.5 8.1875 21.5 5.5625 21.375 C4.9025 20.715 4.2425 20.055 3.5625 19.375 C2.5725 20.035 1.5825 20.695 0.5625 21.375 C-2.9375 21.75 -2.9375 21.75 -6.4375 21.375 C-8.4375 19.6875 -8.4375 19.6875 -9.4375 17.375 C-9.30392353 14.63668243 -8.79277822 12.96016412 -7.375 10.625 C-4.26096236 8.61594346 -1.10167153 8.67534193 2.5625 8.375 C2.5625 7.055 2.5625 5.735 2.5625 4.375 C1.469375 4.705 0.37625 5.035 -0.75 5.375 C-4.4375 6.375 -4.4375 6.375 -7.4375 6.375 C-7.4375 5.055 -7.4375 3.735 -7.4375 2.375 C-4.37702368 0.33468245 -3.50254006 0.05906476 0 0 Z " fill="#B040FF" transform="translate(319.4375,253.625)"/>
<path d="M0 0 C1.32 0.66 2.64 1.32 4 2 C3.40933505 4.12879245 2.80201433 6.25296925 2.1875 8.375 C1.68283203 10.15003906 1.68283203 10.15003906 1.16796875 11.9609375 C0 15 0 15 -3 17 C-6 17.4375 -6 17.4375 -9 17 C-11.04308411 14.39330648 -11.95446418 12.13660747 -13 9 C-14.65 9 -16.3 9 -18 9 C-18.50660156 10.46373047 -18.50660156 10.46373047 -19.0234375 11.95703125 C-19.47373825 13.24226463 -19.92427126 14.52741665 -20.375 15.8125 C-20.59671875 16.45509766 -20.8184375 17.09769531 -21.046875 17.75976562 C-22.1239885 20.81686717 -23.19061861 23.28592791 -25 26 C-27.16632945 36.39838136 -25.84275803 46.65093929 -24 57 C-24.99 56.67 -25.98 56.34 -27 56 C-32.0317783 43.37819923 -30.18836177 26.687185 -25.41796875 14.25390625 C-23.60757205 10.09946975 -22.29884604 7.14175813 -19 4 C-15.5 3.125 -15.5 3.125 -12 4 C-9.85931997 6.08166379 -8.31467537 8.32218196 -7 11 C-7 11.66 -7 12.32 -7 13 C-6.01 13 -5.02 13 -4 13 C-3.79503906 12.14535156 -3.59007813 11.29070312 -3.37890625 10.41015625 C-3.10949219 9.30542969 -2.84007813 8.20070312 -2.5625 7.0625 C-2.29566406 5.96035156 -2.02882813 4.85820312 -1.75390625 3.72265625 C-1 1 -1 1 0 0 Z " fill="#6F78FF" transform="translate(108,226)"/>
<path d="M0 0 C3.0625 2.0625 3.0625 2.0625 5 5 C5 7.31 5 9.62 5 12 C0.38 12 -4.24 12 -9 12 C-8.34 13.32 -7.68 14.64 -7 16 C-3.4780279 16.08004482 -0.38018531 16.04005702 3 15 C3 16.32 3 17.64 3 19 C0.50959058 21.49040942 -0.43154357 21.32391014 -3.875 21.375 C-7.43696344 21.31332098 -8.62450281 21.27475404 -11.5625 19.125 C-14.63483431 14.58328841 -14.71803973 10.38107423 -14 5 C-10.56978004 -0.53261284 -6.0805673 -1.35245891 0 0 Z " fill="#121212" transform="translate(263,254)"/>
<path d="M0 0 C1.65 0 3.3 0 5 0 C5.33 4.95 5.66 9.9 6 15 C7.051875 13.2675 7.051875 13.2675 8.125 11.5 C9.48828125 9.55859375 9.48828125 9.55859375 11 8 C14.3125 7.5625 14.3125 7.5625 17 8 C15.07119658 11.40755272 13.1723491 14.74147635 11 18 C13.31 21.63 15.62 25.26 18 29 C12 29 12 29 10.1015625 27.25 C9.37066406 26.13625 9.37066406 26.13625 8.625 25 C7.87089844 23.88625 7.87089844 23.88625 7.1015625 22.75 C6.55628906 21.88375 6.55628906 21.88375 6 21 C5.67 23.64 5.34 26.28 5 29 C3.35 29 1.7 29 0 29 C0 19.43 0 9.86 0 0 Z " fill="#AC35FF" transform="translate(355,246)"/>
<path d="M0 0 C7.26 0 14.52 0 22 0 C22 1.65 22 3.3 22 5 C19.36 5 16.72 5 14 5 C14 12.59 14 20.18 14 28 C12.02 28 10.04 28 8 28 C8 20.41 8 12.82 8 5 C5.36 5 2.72 5 0 5 C0 3.35 0 1.7 0 0 Z " fill="#B243FF" transform="translate(270,247)"/>
<path d="M0 0 C2.5625 1.5 2.5625 1.5 4 3 C3.67 3.99 3.34 4.98 3 6 C2.01 6.33 1.02 6.66 0 7 C-0.66 6.34 -1.32 5.68 -2 5 C-5.08347826 4.83318891 -5.08347826 4.83318891 -8 5 C-8.0270043 6.45823212 -8.04639787 7.91660675 -8.0625 9.375 C-8.07410156 10.18710937 -8.08570313 10.99921875 -8.09765625 11.8359375 C-8.14466334 14.04937142 -8.14466334 14.04937142 -7 16 C-4.58354218 16.16687448 -4.58354218 16.16687448 -2 16 C-1.34 15.34 -0.68 14.68 0 14 C2.125 14.375 2.125 14.375 4 15 C2.25 19.875 2.25 19.875 0 21 C-3.05920574 21.42071592 -5.9467746 21.48514117 -9 21 C-11.75569447 18.81840855 -13.43588747 17.12822506 -15 14 C-15.37712577 9.00308353 -15.09290612 6.00932275 -12 2 C-7.98677954 -0.67548031 -4.71626345 -0.58740465 0 0 Z " fill="#AF3CFF" transform="translate(347,254)"/>
<path d="M0 0 C3 2.5 3 2.5 5 5 C3.35 5.66 1.7 6.32 0 7 C0 6.34 0 5.68 0 5 C-1.99954746 4.95745644 -4.00041636 4.95919217 -6 5 C-7.23267348 6.00836062 -7.23267348 6.00836062 -7.09765625 8.06640625 C-7.08605469 8.89011719 -7.07445312 9.71382813 -7.0625 10.5625 C-7.05347656 11.38878906 -7.04445312 12.21507812 -7.03515625 13.06640625 C-7.02355469 13.70449219 -7.01195312 14.34257812 -7 15 C-3.52852158 15.74957157 -3.52852158 15.74957157 0 16 C0 15.34 0 14.68 0 14 C1.65 14.33 3.3 14.66 5 15 C3.84826645 17.46800047 2.95216435 19.04783565 1 21 C-3.5370992 21.76658258 -7.04453215 21.57726182 -11 19.1875 C-14.12742203 15.76688216 -14.33489089 12.55665027 -14.29296875 8.00390625 C-13.83259178 4.85492778 -12.23099654 3.165379 -10 1 C-6.78707942 -0.60646029 -3.4741348 -0.62441428 0 0 Z " fill="#0F0F0F" transform="translate(241,254)"/>
<path d="M0 0 C2.22394401 2.11274681 3.98940733 4.30513909 5.75 6.8125 C10.86672081 13.65155681 16.33586499 18.65912196 25 20 C30.9986026 20.32106342 36.99881524 20.17479179 43 20 C42.505 21.485 42.505 21.485 42 23 C30.58239223 24.66074295 20.04899671 25.07136152 10.1875 17.9765625 C5.38905452 13.79220379 1.32594161 9.43237129 -2 4 C-2 3.34 -2 2.68 -2 2 C-1.34 2 -0.68 2 0 2 C0 1.34 0 0.68 0 0 Z " fill="#B545FF" transform="translate(84,281)"/>
<path d="M0 0 C4.33333333 0 8.66666667 0 13 0 C13 1.65 13 3.3 13 5 C11.02 5.66 9.04 6.32 7 7 C6.67 11.62 6.34 16.24 6 21 C4.02 21 2.04 21 0 21 C0 14.07 0 7.14 0 0 Z " fill="#B347FF" transform="translate(398,254)"/>
<path d="M0 0 C2.675255 2.24376226 2.95868973 3.59515935 3.3125 7.0625 C3 10 3 10 1 13 C-1.97867839 13.720648 -4.02311383 14.18826158 -7 14 C-9.5 12.4375 -9.5 12.4375 -11 10 C-11.60605429 6.36367425 -11.47161336 4.71685231 -9.4375 1.625 C-6.07941451 -0.61372366 -3.95254396 -0.57491549 0 0 Z " fill="#A861FF" transform="translate(131,274)"/>
<path d="M0 0 C1.65 0 3.3 0 5 0 C5.33 0.66 5.66 1.32 6 2 C6.66 1.34 7.32 0.68 8 0 C10.625 -0.125 10.625 -0.125 13 0 C13 1.65 13 3.3 13 5 C11.02 5.66 9.04 6.32 7 7 C6.67 11.62 6.34 16.24 6 21 C4.02 21 2.04 21 0 21 C0 14.07 0 7.14 0 0 Z " fill="#B244FF" transform="translate(295,254)"/>
<path d="M0 0 C1.32 0.33 2.64 0.66 4 1 C0.05144343 6.35448201 -4.04186248 11.56257682 -8.265625 16.703125 C-9.81764341 18.75850073 -10.87277917 20.70182995 -12 23 C-13.6436814 24.68933922 -15.3142876 26.35259924 -17 28 C-18.54614856 29.86470178 -20.06998612 31.74276619 -21.5703125 33.64453125 C-23 35 -23 35 -26 35 C-25.39600157 31.3923337 -23.95307523 29.40918792 -21.625 26.625 C-18.14470915 22.39982676 -14.73958072 18.12962351 -11.375 13.8125 C-7.69292434 9.10611601 -3.95131427 4.48527566 0 0 Z " fill="#9766FF" transform="translate(128,255)"/>
<path d="M0 0 C2.4375 1.5625 2.4375 1.5625 4 4 C3.93866496 7.4960972 3.65265114 9.93514814 1.8125 12.9375 C-0.99093325 14.58089191 -2.8187528 14.5193873 -6 14 C-8.4375 11.9375 -8.4375 11.9375 -10 9 C-9.9375 5.3125 -9.9375 5.3125 -9 2 C-5.50875983 -0.32749345 -4.10777749 -0.50299316 0 0 Z " fill="#8C6FFF" transform="translate(109,257)"/>
<path d="M0 0 C4.33333333 0 8.66666667 0 13 0 C12.67 1.65 12.34 3.3 12 5 C10.02 5.66 8.04 6.32 6 7 C5.67 11.62 5.34 16.24 5 21 C3.35 21 1.7 21 0 21 C0 14.07 0 7.14 0 0 Z " fill="#090909" transform="translate(201,254)"/>
<path d="M0 0 C1.98 0 3.96 0 6 0 C6 6.93 6 13.86 6 21 C4.02 21 2.04 21 0 21 C0 14.07 0 7.14 0 0 Z " fill="#232323" transform="translate(217,254)"/>
<path d="M0 0 C3.25811972 0.60616181 4.52040882 1.90298137 6.484375 4.51953125 C9.72886036 9.86029124 11.99078461 15.19841976 11.6875 21.5 C10.6975 21.17 9.7075 20.84 8.6875 20.5 C7.73828125 17.99609375 7.73828125 17.99609375 7 14.9375 C6.74863281 13.92558594 6.49726563 12.91367188 6.23828125 11.87109375 C6.05652344 11.08863281 5.87476563 10.30617187 5.6875 9.5 C5.0275 9.5 4.3675 9.5 3.6875 9.5 C3.3575 8.18 3.0275 6.86 2.6875 5.5 C1.3675 5.5 0.0475 5.5 -1.3125 5.5 C-1.9725 7.15 -2.6325 8.8 -3.3125 10.5 C-4.3025 9.51 -5.2925 8.52 -6.3125 7.5 C-3.85654946 0.83384853 -3.85654946 0.83384853 0 0 Z " fill="#6881FF" transform="translate(140.3125,228.5)"/>
<path d="M0 0 C0.66 0.33 1.32 0.66 2 1 C5.256617 12.17408035 7.14246465 24.86712625 3 36 C2.13036913 33.00293305 1.88236901 30.35043474 1.90234375 27.234375 C1.90556641 26.34492188 1.90878906 25.45546875 1.91210938 24.5390625 C1.92048828 23.61867188 1.92886719 22.69828125 1.9375 21.75 C1.94201172 20.81414062 1.94652344 19.87828125 1.95117188 18.9140625 C1.96293082 16.60930959 1.97936574 14.30468773 2 12 C1.98018066 12.62567871 1.96036133 13.25135742 1.93994141 13.89599609 C1.84485774 16.72276519 1.73511254 19.54877815 1.625 22.375 C1.5940625 23.35984375 1.563125 24.3446875 1.53125 25.359375 C1.49257812 26.30039062 1.45390625 27.24140625 1.4140625 28.2109375 C1.36693115 29.51490479 1.36693115 29.51490479 1.31884766 30.84521484 C1 33 1 33 -1 35 C-1.02477373 30.94320623 -1.04289493 26.88644194 -1.05493164 22.82958984 C-1.05995118 21.45035027 -1.06676819 20.07111598 -1.07543945 18.69189453 C-1.0876092 16.70607817 -1.09271633 14.72022251 -1.09765625 12.734375 C-1.10289307 11.54038086 -1.10812988 10.34638672 -1.11352539 9.11621094 C-1.01882499 6.51673575 -0.71662445 4.4725846 0 2 C0 1.34 0 0.68 0 0 Z " fill="#AC88FF" transform="translate(151,243)"/>
<path d="M0 0 C0.66 0.33 1.32 0.66 2 1 C1.855625 1.88300781 1.71125 2.76601562 1.5625 3.67578125 C-0.35268893 16.05800967 -0.19597189 26.66726503 2 39 C1.01 38.67 0.02 38.34 -1 38 C-3.37123576 32.14725088 -3.33369334 26.37279734 -3.3125 20.125 C-3.32861328 19.18269531 -3.34472656 18.24039062 -3.36132812 17.26953125 C-3.36567698 10.98109082 -2.38125529 5.82204754 0 0 Z " fill="#904AFF" transform="translate(82,244)"/>
<path d="M0 0 C1.093125 0.0825 2.18625 0.165 3.3125 0.25 C2.5625 2.1875 2.5625 2.1875 1.3125 4.25 C0.68085937 4.31316406 0.04921875 4.37632812 -0.6015625 4.44140625 C-3.0668116 5.11691988 -3.0668116 5.11691988 -4.1015625 8.375 C-4.52152108 9.66145541 -4.92457812 10.95352426 -5.3125 12.25 C-6.0481271 14.61518079 -6.83208249 16.92233331 -7.6875 19.25 C-8.3475 19.58 -9.0075 19.91 -9.6875 20.25 C-9.666875 19.486875 -9.64625 18.72375 -9.625 17.9375 C-9.55807159 15.14814214 -9.55807159 15.14814214 -10.6875 12.25 C-9.68604976 9.41449844 -8.16517488 6.86353885 -6.6875 4.25 C-6.254375 3.425 -5.82125 2.6 -5.375 1.75 C-3.6875 0.25 -3.6875 0.25 0 0 Z " fill="#6A7FFF" transform="translate(92.6875,229.75)"/>
<path d="M0 0 C1.32 0.66 2.64 1.32 4 2 C2.74325117 5.77024649 0.8413389 7.22180196 -2 10 C-3.54656363 11.86440378 -5.06996619 13.74274093 -6.5703125 15.64453125 C-8 17 -8 17 -11 17 C-10.41353036 13.11125515 -8.5472913 10.91655358 -6.0625 7.9375 C-3.90342927 5.33172498 -1.8787808 2.8181712 0 0 Z " fill="#AA4FFF" transform="translate(113,273)"/>
<path d="M0 0 C1.44052734 0.24556641 1.44052734 0.24556641 2.91015625 0.49609375 C7.42413725 1.14094818 11.88621642 1.11017662 16.4375 1.0625 C17.67790039 1.05573242 17.67790039 1.05573242 18.94335938 1.04882812 C20.96227146 1.03715811 22.98114574 1.01922718 25 1 C24.67 1.99 24.34 2.98 24 4 C15.57790283 5.22503232 8.14697049 5.77343676 0 3 C0 2.01 0 1.02 0 0 Z " fill="#C530FF" transform="translate(102,300)"/>
<path d="M0 0 C2.5625 0.3125 2.5625 0.3125 4.375 1.5 C5.92928206 3.87232525 5.78787188 5.53291345 5.5625 8.3125 C5.2325 7.6525 4.9025 6.9925 4.5625 6.3125 C3.9025 6.3125 3.2425 6.3125 2.5625 6.3125 C2.5625 5.6525 2.5625 4.9925 2.5625 4.3125 C0.07245496 4.87326801 0.07245496 4.87326801 -2.4375 6.3125 C-3.80939827 9.34232306 -3.80939827 9.34232306 -4.4375 12.3125 C-5.0975 12.3125 -5.7575 12.3125 -6.4375 12.3125 C-6.7675 13.3025 -7.0975 14.2925 -7.4375 15.3125 C-7.80931347 10.23104918 -6.70649214 6.85048427 -4.4375 2.3125 C-2.4375 0.3125 -2.4375 0.3125 0 0 Z " fill="#548DFF" transform="translate(116.4375,214.6875)"/>
<path d="M0 0 C2.33294775 -0.04241723 4.66702567 -0.04092937 7 0 C8 1 8 1 8.125 4 C8 7 8 7 7 8 C4.66702567 8.04092937 2.33294775 8.04241723 0 8 C0 5.36 0 2.72 0 0 Z " fill="#FCFCFC" transform="translate(182,252)"/>
<path d="M0 0 C1 1 1 1 1.1875 3.875 C1 7 1 7 -1 10 C-4.625 10.1875 -4.625 10.1875 -8 10 C-8.33 9.34 -8.66 8.68 -9 8 C-7.02 8 -5.04 8 -3 8 C-3.18415432 5.05908413 -3.18415432 5.05908413 -4 2 C-5.95163118 0.56362302 -5.95163118 0.56362302 -8 0 C-4.95694001 -0.97812643 -3.0322553 -1.04560527 0 0 Z " fill="#A94EFF" transform="translate(133,277)"/>
<path d="M0 0 C0.66 0.33 1.32 0.66 2 1 C2.0292483 4.20831391 2.04688189 7.41659307 2.0625 10.625 C2.07087891 11.52863281 2.07925781 12.43226563 2.08789062 13.36328125 C2.10491895 18.02904289 1.96829423 22.41013285 1 27 C0.01 27 -0.98 27 -2 27 C-1.84152588 26.28432861 -1.68305176 25.56865723 -1.51977539 24.83129883 C-1.01543043 22.08405198 -0.79773833 19.4876077 -0.68359375 16.69921875 C-0.64169922 15.72275391 -0.59980469 14.74628906 -0.55664062 13.74023438 C-0.51732422 12.73283203 -0.47800781 11.72542969 -0.4375 10.6875 C-0.37272461 9.14739258 -0.37272461 9.14739258 -0.30664062 7.57617188 C-0.20093175 5.05090431 -0.09883532 2.52554438 0 0 Z " fill="#874BFF" transform="translate(152,254)"/>
<path d="M0 0 C3.71101021 4.24115452 5.83711122 9.39377956 6.1875 15 C6.125625 15.66 6.06375 16.32 6 17 C5.01 16.67 4.02 16.34 3 16 C2.05078125 13.49609375 2.05078125 13.49609375 1.3125 10.4375 C0.93544922 8.91962891 0.93544922 8.91962891 0.55078125 7.37109375 C0.36902344 6.58863281 0.18726563 5.80617187 0 5 C-0.66 5 -1.32 5 -2 5 C-2 4.34 -2 3.68 -2 3 C-1.34 3 -0.68 3 0 3 C0 2.01 0 1.02 0 0 Z " fill="#5D65FF" transform="translate(146,233)"/>
<path d="M0 0 C0.33 0.99 0.66 1.98 1 3 C1.66 3.33 2.32 3.66 3 4 C2.40606618 5.29640378 1.79942011 6.58698839 1.1875 7.875 C0.85105469 8.59429687 0.51460937 9.31359375 0.16796875 10.0546875 C-1 12 -1 12 -4 14 C-4.99 13.34 -5.98 12.68 -7 12 C-6.57847656 11.38511719 -6.15695313 10.77023437 -5.72265625 10.13671875 C-4.90087891 8.92435547 -4.90087891 8.92435547 -4.0625 7.6875 C-3.51722656 6.88699219 -2.97195312 6.08648437 -2.41015625 5.26171875 C-0.86162674 2.9741857 -0.86162674 2.9741857 0 0 Z " fill="#B154FF" transform="translate(149,278)"/>
<path d="M0 0 C0.66 0.33 1.32 0.66 2 1 C1.69240822 2.97993541 1.3787932 4.95893599 1.0625 6.9375 C0.88847656 8.03964844 0.71445313 9.14179688 0.53515625 10.27734375 C0 13 0 13 -1 14 C-1.23075082 15.34747084 -1.41153063 16.70377565 -1.5625 18.0625 C-1.706875 19.361875 -1.85125 20.66125 -2 22 C-2.33 22 -2.66 22 -3 22 C-3.33608711 13.94635715 -3.0517291 7.50216736 0 0 Z " fill="#7050FF" transform="translate(82,244)"/>
<path d="M0 0 C2.875 -0.1875 2.875 -0.1875 6 0 C8.56687367 3.8503105 7.83288724 5.58569763 7 10 C5.68 10.33 4.36 10.66 3 11 C3.33 8.69 3.66 6.38 4 4 C1.525 3.01 1.525 3.01 -1 2 C-0.67 1.34 -0.34 0.68 0 0 Z " fill="#7D50FF" transform="translate(105,258)"/>
<path d="M0 0 C1.32 0.66 2.64 1.32 4 2 C3.3844197 4.14855454 2.75726569 6.29379625 2.125 8.4375 C1.77695313 9.63246094 1.42890625 10.82742187 1.0703125 12.05859375 C0 15 0 15 -2 16 C-1.67 14.02 -1.34 12.04 -1 10 C-1.66 10 -2.32 10 -3 10 C-2.69201674 8.51988629 -2.378482 7.04092675 -2.0625 5.5625 C-1.88847656 4.73878906 -1.71445313 3.91507813 -1.53515625 3.06640625 C-1 1 -1 1 0 0 Z " fill="#7A91FF" transform="translate(108,226)"/>
<path d="M0 0 C3.99500618 1.3697164 6.80009492 3.25722422 10 6 C9.67 6.66 9.34 7.32 9 8 C4.59885603 7.49701212 2.28804981 5.91227269 -1 3 C-0.67 2.01 -0.34 1.02 0 0 Z " fill="#C44AFF" transform="translate(93,294)"/>
<path d="M0 0 C1.32 0.33 2.64 0.66 4 1 C3.06558465 2.27310312 2.12732889 3.543388 1.1875 4.8125 C0.66542969 5.52019531 0.14335937 6.22789062 -0.39453125 6.95703125 C-1.83128877 8.78531393 -3.31815763 10.39896688 -5 12 C-5.33 11.01 -5.66 10.02 -6 9 C-4.78515625 6.73828125 -4.78515625 6.73828125 -3.0625 4.3125 C-2.49660156 3.50425781 -1.93070312 2.69601562 -1.34765625 1.86328125 C-0.90292969 1.24839844 -0.45820312 0.63351563 0 0 Z " fill="#825EFF" transform="translate(128,255)"/>
<path d="M0 0 C0.66 0.33 1.32 0.66 2 1 C1.9375 2.8125 1.9375 2.8125 1 5 C-4.35714422 8.1250008 -8.89150586 8.37398944 -15 8 C-15 7.67 -15 7.34 -15 7 C-12.36 7 -9.72 7 -7 7 C-6.6596875 6.1028125 -6.6596875 6.1028125 -6.3125 5.1875 C-4.6388703 2.39811716 -2.91182274 1.3831158 0 0 Z " fill="#CB4CFF" transform="translate(133,297)"/>
<path d="M0 0 C1.2065625 0.0309375 1.2065625 0.0309375 2.4375 0.0625 C2.7675 1.7125 3.0975 3.3625 3.4375 5.0625 C1.4575 5.3925 -0.5225 5.7225 -2.5625 6.0625 C-2.94468767 4.40635343 -3.27645102 2.73792976 -3.5625 1.0625 C-2.5625 0.0625 -2.5625 0.0625 0 0 Z " fill="#B0A6FF" transform="translate(106.5625,260.9375)"/>
<path d="M0 0 C0.66 0.33 1.32 0.66 2 1 C1.67 2.65 1.34 4.3 1 6 C-1.31 6.33 -3.62 6.66 -6 7 C-6.66 6.01 -7.32 5.02 -8 4 C-7.01 4 -6.02 4 -5 4 C-4.67 3.34 -4.34 2.68 -4 2 C-3.01 2.33 -2.02 2.66 -1 3 C-0.67 2.01 -0.34 1.02 0 0 Z " fill="#6571FF" transform="translate(134,236)"/>
<path d="M0 0 C2 2 2 2 2.125 4.625 C2.08375 5.40875 2.0425 6.1925 2 7 C1.34 7 0.68 7 0 7 C0.99 10.63 1.98 14.26 3 18 C1 17 1 17 0.1484375 15.109375 C-2.56398687 6.83511075 -2.56398687 6.83511075 -2 3 C-1.34 2.01 -0.68 1.02 0 0 Z " fill="#80A1FF" transform="translate(122,218)"/>
<path d="M0 0 C1.65 0.33 3.3 0.66 5 1 C4.67 2.65 4.34 4.3 4 6 C2.35 5.67 0.7 5.34 -1 5 C-0.67 3.35 -0.34 1.7 0 0 Z " fill="#B5ABFF" transform="translate(125,278)"/>
<path d="M0 0 C1.98 0 3.96 0 6 0 C6.99 2.31 7.98 4.62 9 7 C8.01 7.66 7.02 8.32 6 9 C3 3.25 3 3.25 3 1 C2.01 0.67 1.02 0.34 0 0 Z " fill="#4D68FF" transform="translate(91,231)"/>
<path d="M0 0 C1.67542976 0.28604898 3.34385343 0.61781233 5 1 C4.67 2.32 4.34 3.64 4 5 C2.68 5.33 1.36 5.66 0 6 C-0.38218767 4.34385343 -0.71395102 2.67542976 -1 1 C-0.67 0.67 -0.34 0.34 0 0 Z " fill="#121212" transform="translate(218,246)"/>
<path d="M0 0 C0.042721 1.66611905 0.04063832 3.33382885 0 5 C-1 6 -1 6 -3.5625 6.0625 C-4.7690625 6.0315625 -4.7690625 6.0315625 -6 6 C-5.67 4.35 -5.34 2.7 -5 1 C-1.125 0 -1.125 0 0 0 Z " fill="#FDFAFF" transform="translate(322,265)"/>
<path d="M0 0 C0.66 0.33 1.32 0.66 2 1 C3.28317892 4.84953676 3.06643637 7.94738135 3 12 C2.01 12 1.02 12 0 12 C-0.75698611 8.29917903 -1.16166616 5.61407249 0 2 C0 1.34 0 0.68 0 0 Z " fill="#877BFF" transform="translate(151,243)"/>
<path d="M0 0 C1.65 0 3.3 0 5 0 C5.66 1.32 6.32 2.64 7 4 C4.36 4 1.72 4 -1 4 C-0.67 2.68 -0.34 1.36 0 0 Z " fill="#FBF5FF" transform="translate(382,258)"/>
<path d="M0 0 C0.66 0.99 1.32 1.98 2 3 C4.58380177 3.25030977 4.58380177 3.25030977 7 3 C7 3.66 7 4.32 7 5 C5.35 5.33 3.7 5.66 2 6 C3.32 6.66 4.64 7.32 6 8 C2.28400809 8.20086443 1.22791555 8.1519437 -2 6 C-1.34 4.02 -0.68 2.04 0 0 Z " fill="#B158FF" transform="translate(123,280)"/>
<path d="M0 0 C1.65 0 3.3 0 5 0 C5.33 1.32 5.66 2.64 6 4 C3.69 4 1.38 4 -1 4 C-0.67 2.68 -0.34 1.36 0 0 Z " fill="#F7F7F7" transform="translate(256,258)"/>
<path d="M0 0 C2.34058637 2.12780579 3.70700306 4.11562221 5 7 C3.35 7 1.7 7 0 7 C-0.66 5.35 -1.32 3.7 -2 2 C-1.34 2 -0.68 2 0 2 C0 1.34 0 0.68 0 0 Z " fill="#B560FF" transform="translate(84,281)"/>
<path d="M0 0 C0.3449145 1.33038449 0.67516582 2.66457061 1 4 C1.226875 4.825 1.45375 5.65 1.6875 6.5 C2.04888437 9.39107497 1.52775619 10.5735637 0 13 C-1.86222697 9.27554606 -2.35828027 6.09872618 -1.0625 2.125 C-0.711875 1.42375 -0.36125 0.7225 0 0 Z " fill="#8D90FF" transform="translate(84,237)"/>
<path d="M0 0 C2.5625 0.1875 2.5625 0.1875 4.5625 2.1875 C4.6875 4.8125 4.6875 4.8125 4.5625 7.1875 C4.2325 6.5275 3.9025 5.8675 3.5625 5.1875 C2.9025 5.1875 2.2425 5.1875 1.5625 5.1875 C1.2325 4.5275 0.9025 3.8675 0.5625 3.1875 C-1.45419827 2.05399466 -1.45419827 2.05399466 -3.4375 1.1875 C-2.4375 0.1875 -2.4375 0.1875 0 0 Z " fill="#2E72FF" transform="translate(117.4375,215.8125)"/>
<path d="M0 0 C0 1.98 0 3.96 0 6 C-0.66 6 -1.32 6 -2 6 C-2 4.68 -2 3.36 -2 2 C-4.97 1.505 -4.97 1.505 -8 1 C-4.93251126 -0.86240388 -3.40254489 -1.2151946 0 0 Z " fill="#9746FF" transform="translate(133,277)"/>
<path d="M0 0 C0.99 1.32 1.98 2.64 3 4 C0.29120665 5.35439668 -2.00933268 5.06501451 -5 5 C-5.33 4.34 -5.66 3.68 -6 3 C-4 2 -2 1 0 0 Z " fill="#9F6AFF" transform="translate(108,266)"/>
<path d="M0 0 C0.93423645 3.01031744 1.04449911 3.86650268 0 7 C-0.66 7 -1.32 7 -2 7 C-2.33 7.99 -2.66 8.98 -3 10 C-3.36923077 4.58461538 -3.36923077 4.58461538 -1.5 1.625 C-1.005 1.08875 -0.51 0.5525 0 0 Z " fill="#366BFF" transform="translate(112,220)"/>
<path d="M0 0 C0.33 0.99 0.66 1.98 1 3 C-0.32 3.99 -1.64 4.98 -3 6 C-3.33 4.68 -3.66 3.36 -4 2 C-2.68 1.34 -1.36 0.68 0 0 Z " fill="#9652FF" transform="translate(118,270)"/>
<path d="M0 0 C0.66 0.33 1.32 0.66 2 1 C1.67 2.98 1.34 4.96 1 7 C0.01 7.33 -0.98 7.66 -2 8 C-1.125 2.25 -1.125 2.25 0 0 Z " fill="#6057FF" transform="translate(82,244)"/>
<path d="M0 0 C1.32 0.66 2.64 1.32 4 2 C3.67 2.99 3.34 3.98 3 5 C2.01 5.33 1.02 5.66 0 6 C0 5.34 0 4.68 0 4 C-0.66 3.67 -1.32 3.34 -2 3 C-1.34 2.01 -0.68 1.02 0 0 Z " fill="#B177FF" transform="translate(113,273)"/>
<path d="M0 0 C1.41377341 2.63904371 2.37240135 5.07120629 3 8 C1.68 7.34 0.36 6.68 -1 6 C-1.042721 4.33388095 -1.04063832 2.66617115 -1 1 C-0.67 0.67 -0.34 0.34 0 0 Z " fill="#824AFF" transform="translate(102,262)"/>
<path d="M0 0 C0.93065133 2.60582371 1.14917407 3.64198224 0.0625 6.25 C-0.4634375 7.11625 -0.4634375 7.11625 -1 8 C-1.66 8 -2.32 8 -3 8 C-2.67 6.35 -2.34 4.7 -2 3 C-1.34 3 -0.68 3 0 3 C0 2.01 0 1.02 0 0 Z " fill="#5467FF" transform="translate(107,233)"/>
</svg>
